<svg xmlns="http://www.w3.org/2000/svg" width="19.112" height="16.982" viewBox="0 0 19.112 16.982"><g transform="translate(0 -22.379)"><g transform="translate(0 22.379)"><path d="M5.554,117.592a11.9,11.9,0,0,0,1.547-.1v-5.385a11.912,11.912,0,0,0-1.547-.1c-3.067,0-5.553,1.128-5.553,2.518v.546C0,116.465,2.487,117.592,5.554,117.592Z" transform="translate(-0.001 -107.744)" fill="#9c62e7"/><path d="M5.554,216.754a11.921,11.921,0,0,0,1.547-.1v-1.578a11.907,11.907,0,0,1-1.547.1c-2.677,0-4.911-.859-5.436-2A1.228,1.228,0,0,0,0,213.69v.546C0,215.627,2.487,216.754,5.554,216.754Z" transform="translate(-0.001 -204.094)" fill="#9c62e7"/><path d="M7.1,274.284v-.123a11.907,11.907,0,0,1-1.547.1c-2.677,0-4.911-.859-5.436-2a1.228,1.228,0,0,0-.117.516v.546c0,1.391,2.486,2.518,5.553,2.518a11.8,11.8,0,0,0,1.755-.128,1.987,1.987,0,0,1-.207-.88Z" transform="translate(0 -260.367)" fill="#9c62e7"/><path d="M173.792,22.379c-3.067,0-5.553,1.128-5.553,2.518v.546c0,1.391,2.486,2.518,5.553,2.518s5.553-1.128,5.553-2.518V24.9C179.344,23.507,176.858,22.379,173.792,22.379Z" transform="translate(-160.233 -22.379)" fill="#9c62e7"/><path d="M173.792,125.547c-2.677,0-4.911-.859-5.436-2a1.228,1.228,0,0,0-.117.516v.546c0,1.391,2.486,2.518,5.553,2.518s5.553-1.128,5.553-2.518v-.546a1.228,1.228,0,0,0-.117-.516C178.7,124.688,176.469,125.547,173.792,125.547Z" transform="translate(-160.233 -118.73)" fill="#9c62e7"/><path d="M173.792,184.631c-2.677,0-4.911-.859-5.436-2a1.228,1.228,0,0,0-.117.516v.546c0,1.391,2.486,2.518,5.553,2.518s5.553-1.128,5.553-2.518v-.546a1.228,1.228,0,0,0-.117-.516C178.7,183.772,176.469,184.631,173.792,184.631Z" transform="translate(-160.233 -175.002)" fill="#9c62e7"/><path d="M173.792,246.9c-2.677,0-4.911-.859-5.436-2a1.228,1.228,0,0,0-.117.516v.546c0,1.391,2.486,2.518,5.553,2.518s5.553-1.128,5.553-2.518v-.546a1.228,1.228,0,0,0-.117-.516C178.7,246.044,176.469,246.9,173.792,246.9Z" transform="translate(-160.233 -234.311)" fill="#9c62e7"/><path d="M173.792,305.987c-2.677,0-4.911-.859-5.436-2a1.228,1.228,0,0,0-.117.516v.546c0,1.391,2.486,2.518,5.553,2.518s5.553-1.128,5.553-2.518V304.5a1.228,1.228,0,0,0-.117-.516C178.7,305.127,176.469,305.987,173.792,305.987Z" transform="translate(-160.233 -290.583)" fill="#9c62e7"/></g></g></svg>