<?xml version="1.0" encoding="iso-8859-1"?>
<!-- Generator: Adobe Illustrator 16.0.0, SVG Export Plug-In . SVG Version: 6.00 Build 0)  -->
<!DOCTYPE svg PUBLIC "-//W3C//DTD SVG 1.1//EN" "http://www.w3.org/Graphics/SVG/1.1/DTD/svg11.dtd">
<svg data-name="ln-logo-side" xmlns="http://www.w3.org/2000/svg" xmlns:xlink="http://www.w3.org/1999/xlink" viewBox="0 0 223.95 61.51">
	<defs>
		<clipPath id="clip-path">
			<rect width="224.15" height="61.51" style="fill:none"></rect>
		</clipPath>
	</defs>
	<title>
		Liquidity Network
	</title>
	<g style="clip-path:url(#clip-path)">
		<!--<path d="M69.3,39.8a1,1,0,0,1,1,1.1,1,1,0,0,1-1,1H63a1,1,0,0,1-1-1V28.2a1,1,0,0,1,1.1-1,1,1,0,0,1,1,1V39.8Z" style="fill:#fff"></path>-->
		<!--<path d="M78.9,39.8a1,1,0,0,1,1,1.1,1,1,0,0,1-1,1H72.6a1,1,0,0,1-1-1.1,1,1,0,0,1,1-1h2.1V29.3H72.6a1.1,1.1,0,0,1-1.1-1,1.11,1.11,0,0,1,1.1-1.1h6.3A1.11,1.11,0,0,1,80,28.3a1,1,0,0,1-1.1,1H76.8V39.8Z" style="fill:#fff"></path>-->
		<!--<path d="M87.5,31.4a2.1,2.1,0,1,0-4.2,0v6.3a2.05,2.05,0,0,0,2.1,2.1,1.27,1.27,0,0,0,.6-.1l-.7-.7a1,1,0,0,1-.4-.5.76.76,0,0,1,.1-.8c.1-.3.3-.4.6-.5a.75.75,0,0,1,.8.1c.1.1.2.1.3.2l.8.8c0-.2.1-.3.1-.5Zm-6.3,0a4.2,4.2,0,1,1,8.4-.4v6.7a3.69,3.69,0,0,1-.6,2.1l.1.2a1,1,0,0,1,.4.5.75.75,0,0,1-.1.8c-.1.3-.3.4-.6.5a.75.75,0,0,1-.8-.1c-.1-.1-.2-.1-.3-.2l-.2-.2a4.24,4.24,0,0,1-5.8-1.5,3.94,3.94,0,0,1-.6-2.1Z" style="fill:#fff"></path>-->
		<!--<path d="M97.1,28.2a1,1,0,0,1,1.1-1,1,1,0,0,1,1,1v9.5a4.2,4.2,0,0,1-8.4,0V28.2a1,1,0,0,1,1.1-1,1,1,0,0,1,1,1v9.5a2.1,2.1,0,0,0,4.2,0Z" style="fill:#fff"></path>-->
		<!--<path d="M107.8,39.8a1,1,0,0,1,1,1.1,1,1,0,0,1-1,1h-6.3a1,1,0,0,1-1-1.1,1,1,0,0,1,1-1h2.1V29.3h-2.1a1.1,1.1,0,0,1-1.1-1,1.11,1.11,0,0,1,1.1-1.1h6.3a1.11,1.11,0,0,1,1.1,1.1,1,1,0,0,1-1.1,1h-2.1V39.8Z" style="fill:#fff"></path>-->
		<!--<path d="M116.3,31.4a2.05,2.05,0,0,0-2.1-2.1h-2.1V39.8h2.1a2.05,2.05,0,0,0,2.1-2.1Zm-2.1-4.2a4.23,4.23,0,0,1,4.2,4.2v6.3a4.23,4.23,0,0,1-4.2,4.2H111a1.1,1.1,0,0,1-1.1-1V28.2a1,1,0,0,1,1.1-1Z" style="fill:#fff"></path>-->
		<!--<path d="M127,39.8a1,1,0,0,1,1,1.1,1,1,0,0,1-1,1h-6.3a1,1,0,0,1-1-1.1,1,1,0,0,1,1-1h2.1V29.3h-2.1a1.1,1.1,0,0,1-1.1-1,1.11,1.11,0,0,1,1.1-1.1H127a1.11,1.11,0,0,1,1.1,1.1,1,1,0,0,1-1.1,1h-2.1V39.8Z" style="fill:#fff"></path>-->
		<!--<path d="M136.6,27.2a1.1,1.1,0,0,1,1.1,1,1.11,1.11,0,0,1-1.1,1.1h-2.1V40.9a1.1,1.1,0,1,1-2.2,0V29.3h-2.1a1.1,1.1,0,0,1-1.1-1,1.11,1.11,0,0,1,1.1-1.1Z" style="fill:#fff"></path>-->
		<!--<path d="M142,34.8l-3-5.9a1.21,1.21,0,0,1,.2-1.5,1.42,1.42,0,0,1,.6-.2,1.14,1.14,0,0,1,.8.3c.1.1.1.2.2.3l2.2,4.4,2.2-4.4c.1-.1.1-.2.2-.3a1.08,1.08,0,0,1,.7-.3,1.11,1.11,0,0,1,1.1,1.1,1.42,1.42,0,0,1-.2.6l-3,5.9v6.1a1.1,1.1,0,0,1-2.2,0Z" style="fill:#fff"></path>-->
		<!--<path d="M160.2,40.9a1.1,1.1,0,1,1-2.2,0V28.2a1,1,0,0,1,1.1-1,1.14,1.14,0,0,1,.8.3c.1.1.1.2.2.3l4.3,8.6V28.2a1.1,1.1,0,1,1,2.2,0V40.8a1,1,0,0,1-1.1,1,.91.91,0,0,1-.7-.3c-.1-.1-.2-.2-.2-.3l-4.3-8.6Z" style="fill:#fff"></path>-->
		<!--<path d="M175,27.2a1.1,1.1,0,0,1,1.1,1,1.11,1.11,0,0,1-1.1,1.1h-5.3v4.2H174a1,1,0,0,1,1,1.1,1,1,0,0,1-1,1h-4.2v4.2H175a1,1,0,0,1,1,1.1,1,1,0,0,1-1,1h-6.3a1.18,1.18,0,0,1-1.1-1V28.2a1,1,0,0,1,1.1-1Z" style="fill:#fff"></path>-->
		<!--<path d="M184.6,27.2a1.1,1.1,0,0,1,1.1,1,1.11,1.11,0,0,1-1.1,1.1h-2.1V40.9a1.1,1.1,0,1,1-2.2,0V29.3h-2.1a1.1,1.1,0,0,1-1.1-1,1.11,1.11,0,0,1,1.1-1.1Z" style="fill:#fff"></path>-->
		<!--<path d="M186.9,28.2a1.1,1.1,0,1,1,2.2,0v11a.47.47,0,0,0,.5.5.76.76,0,0,0,.4-.2c.1-.1.2-.2.1-.4V31.3a1.1,1.1,0,1,1,2.2,0v7.9a.55.55,0,0,0,1.1.1V28.2a1.1,1.1,0,1,1,2.2,0v11a2.6,2.6,0,0,1-2.7,2.6,3,3,0,0,1-1.6-.5,2.68,2.68,0,0,1-3.7-.5,3,3,0,0,1-.5-1.6Z" style="fill:#fff"></path>-->
		<!--<path d="M202.8,31.4a2.1,2.1,0,0,0-4.2,0v6.3a2.1,2.1,0,0,0,4.2,0Zm-6.3,0a4.2,4.2,0,1,1,8.4-.4v6.7a4.2,4.2,0,1,1-8.4.4V31.4Z" style="fill:#fff"></path>-->
		<!--<path d="M208.2,29.3v4.2h2.1a2.1,2.1,0,0,0,0-4.2Zm0,11.6a1.1,1.1,0,1,1-2.2,0V28.2a1,1,0,0,1,1.1-1h3.1a4.24,4.24,0,0,1,3,7.2,7.1,7.1,0,0,1-1.4,1l2.4,4.9a1.21,1.21,0,0,1-.2,1.5,1.43,1.43,0,0,1-.6.2.91.91,0,0,1-.7-.3c-.1-.1-.2-.2-.2-.3l-2.9-5.7h-1.4Z" style="fill:#fff"></path>-->
		<!--<path d="M219.3,33.5l2.9-5.7c.1-.1.1-.2.2-.3a1.08,1.08,0,0,1,.7-.3,1.11,1.11,0,0,1,1.1,1.1,1.41,1.41,0,0,1-.2.6l-2.8,5.7,2.8,5.7a1.1,1.1,0,0,1-.2,1.5,1.43,1.43,0,0,1-.6.2.91.91,0,0,1-.7-.3c-.1-.1-.2-.2-.2-.3l-2.9-5.7H218V41a1.1,1.1,0,1,1-2.2,0V28.2a1.1,1.1,0,1,1,2.2,0v5.3Z" style="fill:#fff"></path>-->
		<path d="M45.7,29.5a6.33,6.33,0,0,0-6.2,5.3H31.2A7,7,0,0,0,30,32L40,22a4.47,4.47,0,1,0-1.2-6.2,4.38,4.38,0,0,0,0,4.9l-10,10a6.86,6.86,0,0,0-2.9-1.2V12.4a6.21,6.21,0,1,0-1.7,0V29.6a6.65,6.65,0,0,0-2.9,1.2l-8.1-8.1A2.75,2.75,0,1,0,12,23.9L20,32a6.2,6.2,0,0,0-.3,6.9L7,51.6a4.45,4.45,0,1,0,1.1,6.2,4.38,4.38,0,0,0,.1-4.9L20.8,40.3a6.81,6.81,0,0,0,3.3,1.6V52.7a4.43,4.43,0,1,0,5.2,3.5,4.5,4.5,0,0,0-3.5-3.5V41.8a5,5,0,0,0,2.8-1.2l8.1,8.1a2.66,2.66,0,0,0,1.2,3.6,2.75,2.75,0,0,0,3.6-1.2,2.66,2.66,0,0,0-1.2-3.6,2.55,2.55,0,0,0-2.4,0L30,39.4a7,7,0,0,0,1.2-2.8h8.3a6.21,6.21,0,0,0,12.3-1.7,6.07,6.07,0,0,0-6.1-5.4" style="fill:#fff"></path>
	</g>
</svg>