<svg xmlns="http://www.w3.org/2000/svg" width="23.46" height="23.457" viewBox="0 0 23.46 23.457"><g transform="translate(23.46 23.459) rotate(180)"><g transform="translate(0 0.002)"><path d="M11.73,0A11.729,11.729,0,1,0,23.46,11.731,11.728,11.728,0,0,0,11.73,0Zm8.148,13.33-5.537,5.536a1.729,1.729,0,1,1-2.44-2.439l2.649-2.65h-9.8a1.725,1.725,0,1,1,0-3.451H14.6L11.938,7.667a1.728,1.728,0,1,1,2.44-2.441l5.464,5.461c.024.024.041.054.061.077a.639.639,0,0,1,.058.047A1.784,1.784,0,0,1,19.878,13.332Z" transform="translate(0 -0.002)" fill="#a13940"/></g></g></svg>