<svg xmlns="http://www.w3.org/2000/svg" width="83.082" height="39.724" viewBox="0 0 83.082 39.724"><g transform="translate(-26.449 -28)"><g transform="translate(-254.551 -52)"><rect width="36.925" height="8.109" rx="4.054" transform="translate(281 80)" fill="#fff"/><rect width="36.925" height="8.109" rx="4.054" transform="translate(303.579 81.31) rotate(90)" fill="#fff"/><rect width="32.999" height="7.246" rx="3.623" transform="translate(364.082 93.721) rotate(128)" fill="#fff"/><rect width="11.055" height="7.246" rx="3.623" transform="translate(358.372 119.724) rotate(-128)" fill="#9c62e7"/><rect width="18.841" height="7.246" rx="3.623" transform="translate(349.655 108.567) rotate(-128)" fill="#fff"/><path d="M54.374,141.786V141.3a14.781,14.781,0,0,0-3.493-8.732,11.562,11.562,0,0,0-8.907-3.867,12.153,12.153,0,0,0-9.743,4.3c-2.183,2.645-3.331,6.325-3.331,10.641A15.745,15.745,0,0,0,32.38,154.2a12.653,12.653,0,0,0,9.868,4.154,12.733,12.733,0,0,0,7.585-2.171,11.884,11.884,0,0,0,3.792-4.641,2.924,2.924,0,0,0,.424-1.584,3.3,3.3,0,0,0-2.532-3.094H51.5a4.765,4.765,0,0,0-1.385-.237,3.344,3.344,0,0,0-3.031,2l-.025.05a4.748,4.748,0,0,1-4.778,3.131c-4.4,0-5.751-3.256-6.113-5.988H50.531C52.877,145.853,54.374,144.256,54.374,141.786Zm-12.387-6.637c3.169,0,4.441,2.495,4.928,4.254H36.56C37.383,136.572,39.2,135.149,41.986,135.149Z" transform="translate(282.164 -40.092)" fill="#fff"/></g></g></svg>