<svg xmlns="http://www.w3.org/2000/svg" width="512" height="512" viewBox="0 0 512 512"><path d="M256,0C397.385,0,512,114.615,512,256S397.385,512,256,512,0,397.385,0,256,114.615,0,256,0Z" fill="#b1363f"/><path d="M354.376,371.536a19.954,19.954,0,0,1-14.144-5.856L146.408,171.848a20,20,0,1,1,28.28-28.28L368.52,337.4a20,20,0,0,1-14.144,34.136Z" fill="#fff"/><path d="M160.544,371.536A20,20,0,0,1,146.4,337.4L340.232,143.568a20,20,0,1,1,28.28,28.28L174.688,365.68A19.94,19.94,0,0,1,160.544,371.536Z" fill="#fff"/></svg>