<svg xmlns="http://www.w3.org/2000/svg" xmlns:xlink="http://www.w3.org/1999/xlink" width="151.489" height="36.456" viewBox="0 0 151.489 36.456"><defs><linearGradient id="a" x1="0.915" y1="0.049" x2="-0.384" y2="0.719" gradientUnits="objectBoundingBox"><stop offset="0" stop-color="#00a0ff"/><stop offset="0.01" stop-color="#00a1ff"/><stop offset="0.26" stop-color="#00beff"/><stop offset="0.51" stop-color="#00d2ff"/><stop offset="0.76" stop-color="#00dfff"/><stop offset="1" stop-color="#00e3ff"/></linearGradient><linearGradient id="b" x1="1.077" y1="0.5" x2="-1.306" y2="0.5" gradientUnits="objectBoundingBox"><stop offset="0" stop-color="#ffe000"/><stop offset="0.41" stop-color="#ffbd00"/><stop offset="0.78" stop-color="orange"/><stop offset="1" stop-color="#ff9c00"/></linearGradient><linearGradient id="c" x1="0.862" y1="0.179" x2="-0.502" y2="1.947" gradientUnits="objectBoundingBox"><stop offset="0" stop-color="#ff3a44"/><stop offset="1" stop-color="#c31162"/></linearGradient><linearGradient id="d" x1="-0.188" y1="-0.541" x2="0.421" y2="0.249" gradientUnits="objectBoundingBox"><stop offset="0" stop-color="#32a071"/><stop offset="0.07" stop-color="#2da771"/><stop offset="0.48" stop-color="#15cf74"/><stop offset="0.8" stop-color="#06e775"/><stop offset="1" stop-color="#00f076"/></linearGradient></defs><g transform="translate(-1.136 -1)"><path d="M139.38,20.885,136.613,28.5h-.077l-2.87-7.617h-2.586l4.306,10.654-2.457,5.917h2.521l6.62-16.571Zm-14.562.008.068.039c2.862,0,5.094,1.648,5.094,4.49v6.24h-2.42v-1.3h-.081a3.577,3.577,0,0,1-3.225,1.557,3.973,3.973,0,0,1-2.864-.933,3.7,3.7,0,0,1-1.3-2.635c0-2.348,2.432-3.646,4.839-3.646a5.711,5.711,0,0,1,2.62.622v-.168a2.313,2.313,0,0,0-.89-1.589,2.481,2.481,0,0,0-1.8-.5,2.4,2.4,0,0,0-2.285,1.194l-2.232-.9a4.738,4.738,0,0,1,4.477-2.478Zm-.308,8.887.068.041a3,3,0,0,0,2.942-2.6,4.59,4.59,0,0,0-2.285-.544c-1.263,0-2.688.429-2.688,1.726,0,.974,1.143,1.374,1.961,1.374Zm-7.719,2.152h2.2V14.257h-2.2ZM110.382,14.27h.012a4.824,4.824,0,0,1,4.575,2.622,6.025,6.025,0,0,1,0,5.722,4.819,4.819,0,0,1-4.575,2.622h-3.317v6.7H104.7V14.27Zm0,8.477.05.043a2.89,2.89,0,0,0,2.726-3.03,2.89,2.89,0,0,0-2.726-3.031h-3.368v6.02h3.318Zm-10.371,1.658.294.584-7.958,3.053a3.048,3.048,0,0,0,2.881,1.677,3.465,3.465,0,0,0,2.922-1.534l2.029,1.3a6.293,6.293,0,0,1-9.166.847,5.209,5.209,0,0,1-1.688-3.926,4.987,4.987,0,0,1,1.51-3.886,5.81,5.81,0,0,1,4.085-1.635,5.563,5.563,0,0,1,5.092,3.521ZM91.9,26.251,97.214,24.2A2.345,2.345,0,0,0,95,23.029a3.364,3.364,0,0,0-2.281,1.005,2.9,2.9,0,0,0-.825,2.217Zm-5.882,5.681h2.2V14.257h-2.2Zm-3.439-9.7v-.943h2.339v10.2c0,4.23-2.462,5.968-5.438,5.968a5.507,5.507,0,0,1-5.127-3.382l2.217-.916a3.194,3.194,0,0,0,2.908,2.034c1.9,0,3.087-1.173,3.087-3.368V31h-.081a3.959,3.959,0,0,1-3.046,1.347,5.737,5.737,0,0,1,0-11.464,4.1,4.1,0,0,1,3.046,1.347Zm-3.1,7.49h-.014a3.536,3.536,0,0,0,2.4-1.029,2.874,2.874,0,0,0,.836-2.285,2.9,2.9,0,0,0-.839-2.273,3.56,3.56,0,0,0-2.386-1.042,3.48,3.48,0,0,0-3.357,3.314,3.479,3.479,0,0,0,3.357,3.314Zm-29.734-3.3a5.507,5.507,0,0,1,5.469-5.533,5.4,5.4,0,0,1,3.926,1.585,5.522,5.522,0,1,1-9.395,3.946Zm5.736,3.3H55.47A3.134,3.134,0,0,0,57.7,28.706a3.172,3.172,0,0,0,.839-2.306,3.293,3.293,0,1,0-3.053,3.313Zm6.355-3.3a5.507,5.507,0,0,1,5.469-5.533,5.4,5.4,0,0,1,3.926,1.585,5.522,5.522,0,1,1-9.395,3.946Zm5.736,3.3h-.014a3.134,3.134,0,0,0,2.228-1.008,3.172,3.172,0,0,0,.839-2.306,3.293,3.293,0,1,0-3.053,3.313ZM40.324,22.365v2.408h5.825A5.019,5.019,0,0,1,44.8,27.807a5.988,5.988,0,0,1-4.491,1.764,6.418,6.418,0,1,1,0-12.835,6.233,6.233,0,0,1,4.41,1.725l1.713-1.7a8.521,8.521,0,0,0-6.109-2.5,8.933,8.933,0,0,0-8.008,4.312,8.771,8.771,0,0,0,0,9.036,8.933,8.933,0,0,0,8.008,4.312,8.128,8.128,0,0,0,6.217-2.474,7.981,7.981,0,0,0,2.1-5.641,7.783,7.783,0,0,0-.135-1.511l-8.185.068Zm-1.358-16.6a4,4,0,0,1-.975,2.815,3.643,3.643,0,0,1-2.862,1.253,4.109,4.109,0,0,1-3.756-2.746,4.7,4.7,0,0,1,.882-4.813,3.868,3.868,0,0,1,4.475-.916,3.226,3.226,0,0,1,1.223.944l-.69.745a2.516,2.516,0,0,0-2.133-1,2.908,2.908,0,0,0-2.181.992A3.418,3.418,0,0,0,32.1,5.429a3.347,3.347,0,0,0,1.852,3.1A2.9,2.9,0,0,0,37.3,7.864a2.766,2.766,0,0,0,.649-1.718H35.128V5.133h3.785a3.836,3.836,0,0,1,.053.634Zm5.957-3.52H41.411V4.922h3.2V5.936h-3.2V8.61h3.512V9.652H40.371V1.206h4.552V2.247Zm4.268,7.4h-1v-7.4H46V1.206h5.424V2.247H49.191Zm6.06,0V1.206h1V9.652h-1Zm5.451,0h-1v-7.4H57.515V1.206h5.359V2.247H60.7Zm12.333-1.1a3.844,3.844,0,0,1-5.725,0,4.837,4.837,0,0,1,0-6.263,3.821,3.821,0,0,1,5.725,0A4.823,4.823,0,0,1,73.035,8.554Zm-4.983-.7a2.846,2.846,0,0,0,4.241,0,3.824,3.824,0,0,0,0-4.843,2.846,2.846,0,0,0-4.241,0A3.831,3.831,0,0,0,68.052,7.85Zm7.545,1.8V1.206H76.82l3.8,6.574V1.206h1V9.652h-1.04L76.612,2.768V9.653H75.6Z" transform="translate(10.555)" fill="#fff"/><path d="M.747.559A2.719,2.719,0,0,0,.141,2.44V32.111a2.71,2.71,0,0,0,.606,1.878l.092.095L17.131,17.475v-.388L.839.466.746.561Z" transform="translate(1 1.164)" fill="url(#a)"/><path d="M18.095,20.13,12.7,14.589V14.2l5.392-5.554.119.068,6.458,3.743c1.84,1.059,1.84,2.8,0,3.877l-6.432,3.728-.145.068Z" transform="translate(5.431 4.05)" fill="url(#b)"/><path d="M22.524,18.552l-5.55-5.66L.587,29.606a2.11,2.11,0,0,0,2.737.081L22.538,18.552" transform="translate(1.159 5.547)" fill="url(#c)"/><path d="M22.527,11.731,3.313.6A2.11,2.11,0,0,0,.578.678l16.4,16.714,5.55-5.661Z" transform="translate(1.156 1.047)" fill="url(#d)"/></g></svg>