<svg xmlns="http://www.w3.org/2000/svg" width="151" height="122" viewBox="0 0 151 122"><g transform="translate(-1133 -1336)"><rect width="151" height="122" transform="translate(1133 1336)" fill="#bc9be6" opacity="0"/><g transform="translate(1161 1341.63)"><g transform="translate(0 9.37)"><path d="M87.018,90.123v-44.7A4.02,4.02,0,0,0,83,41.4H79.312V37.222L72.2,36.13a25.5,25.5,0,0,0-.739-2.767l5.612-4.5L73,21.8l-6.71,2.612a25.411,25.411,0,0,0-2.024-2.024l2.613-6.708-7.059-4.074-4.5,5.613a25.63,25.63,0,0,0-2.767-.739L51.462,9.37h-8.15l-1.091,7.115a25.516,25.516,0,0,0-2.767.739l-4.5-5.613L27.9,15.685l2.612,6.708a25.342,25.342,0,0,0-2.025,2.025L21.773,21.8,17.7,28.861l5.612,4.5a25.355,25.355,0,0,0-.739,2.767l-7.113,1.093V41.4H11.775a4.028,4.028,0,0,0-4.019,4.019v44.7H0V95.4a5.274,5.274,0,0,0,5.277,5.276H89.5A5.273,5.273,0,0,0,94.774,95.4V90.123H87.018Zm-68.6-50.367,6.705-1.03.173-1.059a22.235,22.235,0,0,1,1.142-4.278l.379-1-5.289-4.243,1.54-2.668,6.322,2.461.679-.827A22.451,22.451,0,0,1,33.2,23.975l.829-.679-2.462-6.32,2.669-1.542,4.242,5.29,1-.379A22.46,22.46,0,0,1,43.76,19.2l1.057-.173,1.029-6.7H48.93l1.029,6.7,1.057.173A22.486,22.486,0,0,1,55.3,20.345l1,.379,4.24-5.289,2.67,1.542L60.746,23.3l.83.679a22.619,22.619,0,0,1,3.133,3.133l.679.827,6.322-2.461,1.54,2.668-5.291,4.244.38,1a22.2,22.2,0,0,1,1.143,4.279l.173,1.058,6.706,1.03V41.4H66.22V41.3a18.834,18.834,0,1,0-37.667,0V41.4H18.415ZM41.556,41.4V41.3a5.83,5.83,0,0,1,11.66,0V41.4Zm5.83-8.889a8.791,8.791,0,0,0-8.781,8.779V41.4H31.5V41.3a15.882,15.882,0,1,1,31.764,0V41.4h-7.1V41.3A8.791,8.791,0,0,0,47.386,32.515ZM10.708,45.424a1.063,1.063,0,0,1,.32-.757,1.043,1.043,0,0,1,.748-.311H83a1.07,1.07,0,0,1,1.069,1.068v44.7H80.9v-42.6H13.879v42.6H10.708Zm67.239,44.7H16.83V50.475H77.946ZM91.824,95.4A2.323,2.323,0,0,1,89.5,97.723H5.277A2.322,2.322,0,0,1,2.952,95.4V93.075H91.824Z" transform="translate(0 -9.37)" fill="#bc9be6"/><path d="M240.555,297.173h4.592a5.117,5.117,0,0,0,0-10.234H237.6v17.517h2.952v-7.282Zm0-7.283h4.592a2.166,2.166,0,1,1,0,4.331h-4.592Z" transform="translate(-193.621 -235.559)" fill="#bc9be6"/><path d="M151.374,297.171h6.758v7.284h2.952v-12.4a5.118,5.118,0,0,0-5.117-5.118h-2.43a5.121,5.121,0,0,0-5.115,5.118v12.4h2.951Zm0-5.114a2.168,2.168,0,0,1,2.164-2.166h2.43a2.165,2.165,0,0,1,2.165,2.166v2.163h-6.758Z" transform="translate(-120.949 -235.559)" fill="#bc9be6"/><path d="M333.49,301.511h-1.94V289.9h1.94v-2.952h-6.834V289.9H328.6v11.61h-1.943v2.952h6.834Z" transform="translate(-266.19 -235.568)" fill="#bc9be6"/><rect width="2.952" height="2.952" transform="translate(71.284 58.66)" fill="#bc9be6"/><rect width="2.952" height="2.952" transform="translate(20.542 58.66)" fill="#bc9be6"/></g></g></g></svg>