<svg xmlns="http://www.w3.org/2000/svg" width="139.386" height="36.179" viewBox="0 0 139.386 36.179"><path d="M51.729,28.878H45.123l-1.587,4.735h-2.8L47,16.095H49.9L56.16,33.613H53.314Zm-5.922-2.185h5.238L48.462,19.01H48.39Zm23.866.535c0,3.969-2.1,6.519-5.274,6.519a4.275,4.275,0,0,1-3.975-2.235h-.061v6.327H57.771v-17h2.51v2.124h.048a4.472,4.472,0,0,1,4.022-2.258c3.208,0,5.321,2.564,5.321,6.522Zm-2.667,0c0-2.586-1.321-4.287-3.338-4.287-1.982,0-3.314,1.736-3.314,4.287,0,2.573,1.332,4.3,3.314,4.3,2.018,0,3.339-1.689,3.339-4.3Zm16.574,0c0,3.969-2.1,6.519-5.274,6.519a4.275,4.275,0,0,1-3.975-2.235h-.061v6.327H71.677v-17h2.511v2.124h.047a4.472,4.472,0,0,1,4.024-2.258c3.206,0,5.321,2.564,5.321,6.522Zm-2.667,0c0-2.586-1.321-4.287-3.338-4.287-1.982,0-3.315,1.736-3.315,4.287,0,2.573,1.334,4.3,3.315,4.3,2.018,0,3.339-1.689,3.339-4.3Zm11.857,1.5c.192,1.737,1.862,2.879,4.143,2.879,2.185,0,3.759-1.142,3.759-2.707,0-1.36-.949-2.174-3.2-2.732l-2.246-.547c-3.183-.777-4.66-2.28-4.66-4.722,0-3.022,2.606-5.1,6.3-5.1,3.662,0,6.173,2.077,6.258,5.1h-2.617c-.156-1.748-1.587-2.8-3.676-2.8s-3.519,1.068-3.519,2.622c0,1.24.912,1.968,3.147,2.526l1.91.474c3.556.85,5.03,2.294,5.03,4.856,0,3.277-2.58,5.33-6.689,5.33-3.842,0-6.437-2-6.606-5.174Zm16.238-10.914v3.022h2.4v2.076h-2.4v7.043c0,1.093.482,1.6,1.538,1.6a7.986,7.986,0,0,0,.853-.061v2.065a7.048,7.048,0,0,1-1.44.12c-2.558,0-3.556-.972-3.556-3.448V22.916h-1.838V20.842H106.4V17.82h2.606Zm3.794,9.41c0-4.019,2.341-6.545,5.992-6.545s5.994,2.526,5.994,6.545-2.318,6.544-5.994,6.544S112.8,31.257,112.8,27.228Zm9.344,0c0-2.757-1.249-4.384-3.351-4.384s-3.351,1.639-3.351,4.384c0,2.768,1.251,4.381,3.351,4.381S122.146,30,122.146,27.228Zm4.782-6.388H129.4v2.174h.059a3.018,3.018,0,0,1,3.04-2.308,4,4,0,0,1,.887.1v2.453a3.589,3.589,0,0,0-1.165-.159,2.6,2.6,0,0,0-2.02.84,2.66,2.66,0,0,0-.683,2.1v7.576h-2.593V20.842Zm18.419,9.022c-.35,2.319-2.584,3.911-5.441,3.911-3.676,0-5.956-2.49-5.956-6.484s2.293-6.606,5.846-6.606c3.5,0,5.7,2.428,5.7,6.3v.9h-8.924v.158a3.346,3.346,0,0,0,.891,2.584,3.277,3.277,0,0,0,2.507,1.034,2.859,2.859,0,0,0,2.919-1.8Zm-8.767-3.813h6.316a3.092,3.092,0,0,0-.849-2.305,3.022,3.022,0,0,0-2.25-.936,3.181,3.181,0,0,0-2.278.943,3.252,3.252,0,0,0-.94,2.3ZM45.484,2.908a3.662,3.662,0,0,1,2.938,1.154,3.742,3.742,0,0,1,.98,3.029c0,2.688-1.437,4.234-3.918,4.234H42.475V2.908h3.01Zm-1.715,7.228h1.57a2.6,2.6,0,0,0,2.087-.854,2.666,2.666,0,0,0,.659-2.174,2.673,2.673,0,0,0-.67-2.16,2.612,2.612,0,0,0-2.076-.85h-1.57Zm7.094-1.99A3.02,3.02,0,0,1,52.255,5.3a2.949,2.949,0,0,1,3.14,0A3.02,3.02,0,0,1,56.79,8.147,3.021,3.021,0,0,1,55.4,10.994a2.951,2.951,0,0,1-3.143,0,3.021,3.021,0,0,1-1.392-2.847Zm4.652,0c0-1.376-.612-2.181-1.686-2.181s-1.685.8-1.685,2.182.607,2.186,1.685,2.186,1.686-.8,1.686-2.186Zm9.154,3.18H63.382l-1.3-4.679h-.1l-1.294,4.679H59.417L57.685,4.973h1.258l1.125,4.848h.093l1.292-4.848h1.19l1.292,4.848h.1l1.119-4.848h1.241ZM67.85,4.973h1.194V5.981h.093A1.88,1.88,0,0,1,71.012,4.85a2.032,2.032,0,0,1,1.65.654,2.079,2.079,0,0,1,.525,1.71v4.113h-1.24v-3.8C71.947,6.507,71.508,6,70.59,6a1.433,1.433,0,0,0-1.115.456,1.468,1.468,0,0,0-.384,1.154v3.716H67.85Zm7.313-2.479H76.4v8.831h-1.24Zm2.964,5.652A3.021,3.021,0,0,1,79.522,5.3a2.951,2.951,0,0,1,3.139,0,3.021,3.021,0,0,1,1.4,2.844,3.021,3.021,0,0,1-1.393,2.847,2.951,2.951,0,0,1-3.144,0,3.021,3.021,0,0,1-1.392-2.847Zm4.652,0c0-1.376-.612-2.181-1.686-2.181s-1.686.8-1.686,2.182.608,2.186,1.686,2.186,1.686-.8,1.686-2.186Zm2.582,1.383c0-1.143.843-1.8,2.337-1.9l1.7-.1V6.985c0-.67-.439-1.05-1.287-1.05-.692,0-1.172.257-1.31.706H85.6c.127-1.092,1.143-1.79,2.568-1.79,1.575,0,2.464.792,2.464,2.134v4.341H89.441v-.893h-.1a2.108,2.108,0,0,1-1.888,1,1.885,1.885,0,0,1-1.465-.481,1.928,1.928,0,0,1-.63-1.421Zm4.04-.543V8.455l-1.534.1c-.867.058-1.258.355-1.258.916s.489.9,1.164.9a1.465,1.465,0,0,0,1.106-.345A1.507,1.507,0,0,0,89.4,8.986Zm2.865-.839c0-2.008,1.02-3.279,2.608-3.279A2.067,2.067,0,0,1,96.8,5.981h.093V2.493h1.24v8.831H96.945v-1h-.1a2.177,2.177,0,0,1-1.975,1.108C93.276,11.431,92.265,10.159,92.265,8.147Zm1.281,0c0,1.347.627,2.157,1.679,2.157s1.692-.822,1.692-2.152-.654-2.159-1.692-2.159S93.547,6.809,93.547,8.147Zm9.718,0A3.02,3.02,0,0,1,104.659,5.3a2.949,2.949,0,0,1,3.138,0,3.02,3.02,0,0,1,1.394,2.844,3.021,3.021,0,0,1-1.392,2.847,2.951,2.951,0,0,1-3.144,0A3.021,3.021,0,0,1,103.265,8.147Zm4.652,0c0-1.378-.612-2.184-1.686-2.184s-1.685.806-1.685,2.184.607,2.186,1.685,2.186S107.917,9.529,107.917,8.147Zm2.939-3.174h1.194V5.981h.093a1.88,1.88,0,0,1,1.875-1.132,2.032,2.032,0,0,1,1.649.654,2.075,2.075,0,0,1,.525,1.71v4.113h-1.24v-3.8c0-1.021-.438-1.528-1.354-1.528a1.433,1.433,0,0,0-1.118.456,1.472,1.472,0,0,0-.384,1.154v3.716h-1.24ZM123.2,3.392V5h1.361V6.057H123.2V9.325c0,.665.271.956.887.956a4.156,4.156,0,0,0,.474-.028V11.3a3.816,3.816,0,0,1-.674.064c-1.379,0-1.929-.491-1.929-1.714V6.056h-1V5h1V3.392Zm3.054-.9h1.23v3.5h.1A1.931,1.931,0,0,1,129.5,4.855a2.059,2.059,0,0,1,1.633.67,2.1,2.1,0,0,1,.531,1.7v4.1h-1.241V7.533c0-1.014-.467-1.528-1.343-1.528a1.459,1.459,0,0,0-1.161.433,1.492,1.492,0,0,0-.421,1.177v3.711h-1.241ZM138.9,9.611a2.551,2.551,0,0,1-2.723,1.838,2.84,2.84,0,0,1-2.2-.96,2.906,2.906,0,0,1-.7-2.319,2.954,2.954,0,0,1,.7-2.327,2.888,2.888,0,0,1,2.2-.992c1.75,0,2.805,1.208,2.805,3.2V8.49h-4.439v.07a1.694,1.694,0,0,0,.439,1.285,1.658,1.658,0,0,0,1.234.535,1.5,1.5,0,0,0,1.5-.77Zm-4.363-2.049h3.174a1.542,1.542,0,0,0-.413-1.169,1.508,1.508,0,0,0-1.133-.475A1.6,1.6,0,0,0,135,6.392a1.627,1.627,0,0,0-.47,1.169ZM27.579,18.65A7.276,7.276,0,0,1,31,12.558a7.331,7.331,0,0,0-5.792-3.165c-2.438-.26-4.8,1.473-6.042,1.473-1.266,0-3.179-1.448-5.238-1.405a7.7,7.7,0,0,0-6.49,4c-2.807,4.912-.713,12.131,1.976,16.1,1.343,1.944,2.916,4.116,4.974,4.038,2.012-.083,2.764-1.3,5.194-1.3,2.407,0,3.114,1.3,5.211,1.248,2.16-.036,3.521-1.953,4.819-3.915a16.155,16.155,0,0,0,2.2-4.537,7.018,7.018,0,0,1-4.237-6.454ZM23.615,6.782A7.2,7.2,0,0,0,25.232,1.66,7.17,7.17,0,0,0,20.577,4.1a6.849,6.849,0,0,0-1.66,4.931,5.925,5.925,0,0,0,4.7-2.244Z" transform="translate(-6.105 -1.66)" fill="#fff"/></svg>