<svg xmlns="http://www.w3.org/2000/svg" width="151" height="122" viewBox="0 0 151 122"><g transform="translate(-1098 -1336)"><g transform="translate(-35)"><rect width="151" height="122" transform="translate(1133 1336)" fill="#bc9be6" opacity="0"/></g><g transform="translate(1104.45 1357.469)"><g transform="translate(34.909)"><path d="M85.333,64.831a1.8,1.8,0,0,0,1.8-1.8V10.805H97.939a5.409,5.409,0,0,0,5.4-5.4V1.8a1.8,1.8,0,0,0-1.8-1.8H36.71a1.8,1.8,0,0,0-1.8,1.8V5.4a5.409,5.409,0,0,0,5.4,5.4V68.433a5.409,5.409,0,0,0-5.4,5.4v3.6a1.8,1.8,0,0,0,1.8,1.8h64.831a1.8,1.8,0,0,0,1.8-1.8v-3.6a5.409,5.409,0,0,0-5.4-5.4V16.208a1.8,1.8,0,1,0-3.6,0V70.233a1.8,1.8,0,0,0,1.8,1.8h1.8a1.8,1.8,0,0,1,1.8,1.8v1.8H38.511v-1.8a1.8,1.8,0,0,1,1.8-1.8H88.935a1.8,1.8,0,1,0,0-3.6H76.329V10.805h7.2V63.03A1.8,1.8,0,0,0,85.333,64.831Zm-12.606,3.6H43.913V54.026h7.2v9a1.8,1.8,0,0,0,3.6,0v-9h7.2v9a1.8,1.8,0,0,0,3.6,0V10.805h7.2V68.433ZM61.922,28.814v21.61H43.913V28.814Zm-7.2-3.6V10.805h7.2V25.212ZM49.316,7.2a1.8,1.8,0,0,0,0,3.6h1.8V25.212h-7.2V9a1.8,1.8,0,0,0-1.8-1.8h-1.8a1.8,1.8,0,0,1-1.8-1.8V3.6H99.74V5.4a1.8,1.8,0,0,1-1.8,1.8Z" transform="translate(-34.909)" fill="#bc9be6"/></g><g transform="translate(47.515 32.415)"><path d="M127.169,214.858a5.4,5.4,0,1,0-7.14,5.091,1.62,1.62,0,0,0-.063.312v1.8a1.8,1.8,0,1,0,3.6,0v-1.8a1.621,1.621,0,0,0-.063-.312A5.4,5.4,0,0,0,127.169,214.858Zm-5.4,1.8a1.8,1.8,0,1,1,1.8-1.8A1.8,1.8,0,0,1,121.767,216.658Z" transform="translate(-116.364 -209.455)" fill="#bc9be6"/></g></g></g></svg>