<svg xmlns="http://www.w3.org/2000/svg" width="151" height="122" viewBox="0 0 151 122"><g transform="translate(-142 -1336)"><rect width="151" height="122" transform="translate(142 1336)" fill="#bc9be6" opacity="0"/><g transform="translate(164 1312.514)"><g transform="translate(0 38.486)"><g transform="translate(0 0)"><path d="M100.368,90.857,97.573,79.678a1.69,1.69,0,0,0,1.337-1.652v-1.8a7.105,7.105,0,0,0-7.1-7.1H79.084V65.408a3.5,3.5,0,0,0-3.492-3.492H51.921l14.384-5.754a1.69,1.69,0,1,0-1.255-3.138L53.272,57.735c3.589-2.3,7.14-4.837,8.491-6.609a7.87,7.87,0,0,0-12.515-9.545c-1.923,2.521-4.46,9.606-6.1,14.6-1.642-4.992-4.179-12.077-6.1-14.6A7.87,7.87,0,0,0,24.53,51.126c1.352,1.773,4.9,4.307,8.491,6.609L21.243,53.024a1.69,1.69,0,1,0-1.255,3.138l14.384,5.754H10.7A3.5,3.5,0,0,0,7.21,65.408V96.05a1.69,1.69,0,1,0,3.38,0V65.408A.113.113,0,0,1,10.7,65.3H75.591a.113.113,0,0,1,.113.113V96.051a1.69,1.69,0,1,0,3.38,0V94.135H99.027a5.529,5.529,0,0,1,5.25,3.83H99.023a1.69,1.69,0,0,0-1.69,1.69v3.6a5.3,5.3,0,0,0,5.295,5.295h1.915v7.435h-4.419a10.7,10.7,0,0,0-20.228,0h-.814V103.26a1.69,1.69,0,0,0-3.38,0v12.73H40.643a10.7,10.7,0,0,0-20.228,0H10.7a.113.113,0,0,1-.113-.113V112.16h7.323a1.69,1.69,0,1,0,0-3.38H1.69a1.69,1.69,0,1,0,0,3.38H7.21v3.718A3.5,3.5,0,0,0,10.7,119.37H19.83c0,.038,0,.075,0,.113a10.7,10.7,0,1,0,21.4,0c0-.038,0-.075,0-.113H79.311c0,.038,0,.075,0,.113a10.7,10.7,0,1,0,21.4,0c0-.038,0-.075,0-.113h5.523a1.69,1.69,0,0,0,1.69-1.69V99.655A8.913,8.913,0,0,0,100.368,90.857ZM36.445,55.892c-6.666-4.142-8.643-6.048-9.228-6.816a4.49,4.49,0,0,1,7.141-5.445c1.635,2.143,4.195,9.357,5.885,14.555C39.1,57.514,37.791,56.728,36.445,55.892Zm9.606,2.294c1.69-5.2,4.25-12.412,5.885-14.555a4.49,4.49,0,0,1,7.141,5.446c-.585.767-2.563,2.673-9.228,6.815C48.5,56.728,47.192,57.514,46.051,58.186ZM79.084,72.505h12.73a3.722,3.722,0,0,1,3.718,3.718v.113H79.084Zm0,18.25V79.715H94.1l2.76,11.04ZM30.529,126.8a7.323,7.323,0,1,1,7.323-7.323A7.331,7.331,0,0,1,30.529,126.8Zm59.482,0a7.323,7.323,0,1,1,7.323-7.323A7.331,7.331,0,0,1,90.011,126.8Zm14.533-21.63h-1.915a1.917,1.917,0,0,1-1.915-1.915v-1.915h3.83v3.83Z" transform="translate(0 -38.486)" fill="#bc9be6"/></g></g><g transform="translate(27.037 115.99)"><path d="M131.759,406.172a3.492,3.492,0,1,0,3.492,3.492A3.5,3.5,0,0,0,131.759,406.172Z" transform="translate(-128.267 -406.172)" fill="#bc9be6"/></g><g transform="translate(86.519 115.99)"><path d="M413.947,406.172a3.492,3.492,0,1,0,3.492,3.492A3.5,3.5,0,0,0,413.947,406.172Z" transform="translate(-410.455 -406.172)" fill="#bc9be6"/></g><g transform="translate(43.259 108.78)"><path d="M232.151,371.967H206.917a1.69,1.69,0,1,0,0,3.38h25.235a1.69,1.69,0,1,0,0-3.38Z" transform="translate(-205.227 -371.967)" fill="#bc9be6"/></g><g transform="translate(3.605 101.57)"><path d="M40.422,337.763H18.792a1.69,1.69,0,0,0,0,3.38h21.63a1.69,1.69,0,0,0,0-3.38Z" transform="translate(-17.102 -337.763)" fill="#bc9be6"/></g><g transform="translate(18.025 76.335)"><g transform="translate(0 0)"><path d="M94.411,218.046H87.2a1.69,1.69,0,0,0-1.69,1.69v14.42a1.69,1.69,0,0,0,3.38,0v-5.52h3.718a1.69,1.69,0,0,0,0-3.38H88.891v-3.83h5.52a1.69,1.69,0,0,0,0-3.38Z" transform="translate(-85.511 -218.046)" fill="#bc9be6"/></g></g><g transform="translate(30.642 76.335)"><path d="M154.95,229.428a6.193,6.193,0,0,0-3.385-11.382h-4.506a1.69,1.69,0,0,0-1.69,1.69v14.42a1.69,1.69,0,1,0,3.38,0v-3.718h2.813l3.1,4.655a1.69,1.69,0,1,0,2.812-1.875Zm-3.385-2.369h-2.816v-5.633h2.816a2.816,2.816,0,1,1,0,5.633Z" transform="translate(-145.369 -218.046)" fill="#bc9be6"/></g><g transform="translate(45.062 76.335)"><g transform="translate(0 0)"><path d="M222.678,232.466h-5.52V228.63c.037,0,.075.006.113.006h3.6a1.69,1.69,0,0,0,0-3.38h-3.6c-.038,0-.075,0-.113.006v-3.836h5.52a1.69,1.69,0,1,0,0-3.38h-7.21a1.69,1.69,0,0,0-1.69,1.69v14.42a1.69,1.69,0,0,0,1.69,1.69h7.21a1.69,1.69,0,1,0,0-3.38Z" transform="translate(-213.778 -218.046)" fill="#bc9be6"/></g></g><g transform="translate(57.679 76.335)"><g transform="translate(0 0)"><path d="M282.536,232.466h-5.52v-3.83h1.915a1.69,1.69,0,0,0,0-3.38h-1.915v-3.83h5.52a1.69,1.69,0,1,0,0-3.38h-7.21a1.69,1.69,0,0,0-1.69,1.69v14.42a1.69,1.69,0,0,0,1.69,1.69h7.21a1.69,1.69,0,1,0,0-3.38Z" transform="translate(-273.636 -218.046)" fill="#bc9be6"/></g></g></g></g></svg>