<svg xmlns="http://www.w3.org/2000/svg" width="151" height="122" viewBox="0 0 151 122"><g transform="translate(-1628 -1336)"><rect width="151" height="122" transform="translate(1628 1336)" fill="#bc9be6" opacity="0"/><g transform="translate(1652 1350.5)"><path d="M172.027,24.984l2.651-4.379,3.544,2.149a2.073,2.073,0,0,0,2.846-.7l4.3-7.09a2.074,2.074,0,0,0-.7-2.846l-10.636-6.44a2.046,2.046,0,0,0-1.569-.241,2.08,2.08,0,0,0-1.277.937l-4.3,7.09a2.073,2.073,0,0,0,.7,2.846l3.546,2.15-2.52,4.157a36.972,36.972,0,0,0-17.394-5.435V12.936h2.073a6.218,6.218,0,1,0,0-12.436H145a6.218,6.218,0,1,0,0,12.436h2.073v4.251a37.335,37.335,0,1,0,24.953,7.8ZM180.749,14.6l-2.15,3.547-7.088-4.3,2.148-3.546Zm-37.82-7.882A2.073,2.073,0,0,1,145,4.645h8.291a2.073,2.073,0,0,1,0,4.145H145A2.073,2.073,0,0,1,142.929,6.718Zm6.218,80.834A33.162,33.162,0,1,1,182.31,54.389,33.163,33.163,0,0,1,149.147,87.552Zm0,0" transform="translate(-82.822)" fill="#bc9be6"/><path d="M173.017,96.5a29.017,29.017,0,1,0,29.017,29.017A29.017,29.017,0,0,0,173.017,96.5Zm-16.045,47.992,1.39-1.389a2.073,2.073,0,1,0-2.931-2.931l-1.389,1.39a24.756,24.756,0,0,1-5.792-13.972h6.113a2.073,2.073,0,0,0,0-4.145h-6.113a24.753,24.753,0,0,1,5.792-13.972l1.389,1.39a2.073,2.073,0,1,0,2.931-2.931l-1.39-1.389a24.753,24.753,0,0,1,13.972-5.792v6.113a2.073,2.073,0,1,0,4.145,0v-6.113a24.753,24.753,0,0,1,13.972,5.792l-1.39,1.389a2.073,2.073,0,1,0,2.931,2.931l1.389-1.39a24.753,24.753,0,0,1,5.792,13.972h-6.113a2.073,2.073,0,0,0,0,4.145h6.113a24.756,24.756,0,0,1-5.792,13.972l-1.389-1.39a2.073,2.073,0,0,0-2.931,2.931l1.39,1.389a24.753,24.753,0,0,1-13.972,5.792v-6.113a2.073,2.073,0,1,0-4.145,0v6.113A24.753,24.753,0,0,1,156.972,144.492Zm0,0" transform="translate(-106.692 -71.128)" fill="#bc9be6"/><path d="M22.8,202.573a2.073,2.073,0,0,0-2.073-2.073H2.073a2.073,2.073,0,1,0,0,4.145H20.727A2.073,2.073,0,0,0,22.8,202.573Zm0,0" transform="translate(0 -148.184)" fill="#bc9be6"/><path d="M50.073,124.645H62.509a2.073,2.073,0,0,0,0-4.145H50.073a2.073,2.073,0,1,0,0,4.145Zm0,0" transform="translate(-35.564 -88.91)" fill="#bc9be6"/><path d="M62.509,280.5H50.073a2.073,2.073,0,0,0,0,4.145H62.509a2.073,2.073,0,0,0,0-4.145Zm0,0" transform="translate(-35.564 -207.457)" fill="#bc9be6"/><path d="M26.073,164.645H40.581a2.073,2.073,0,0,0,0-4.145H26.073a2.073,2.073,0,0,0,0,4.145Zm0,0" transform="translate(-17.782 -118.547)" fill="#bc9be6"/><path d="M42.654,242.573a2.073,2.073,0,0,0-2.073-2.073H26.073a2.073,2.073,0,1,0,0,4.145H40.581A2.073,2.073,0,0,0,42.654,242.573Zm0,0" transform="translate(-17.782 -177.82)" fill="#bc9be6"/><path d="M240.291,178.863v-8.291a2.073,2.073,0,1,0-4.145,0v6.218h-2.073a2.073,2.073,0,0,0,0,4.145h4.145A2.073,2.073,0,0,0,240.291,178.863Zm0,0" transform="translate(-171.893 -124.474)" fill="#bc9be6"/></g></g></svg>