<svg xmlns="http://www.w3.org/2000/svg" width="151" height="122" viewBox="0 0 151 122"><g transform="translate(-637 -1336)"><rect width="151" height="122" transform="translate(637 1336)" fill="#bc9be6" opacity="0"/><g transform="translate(666 1351)"><path d="M50.426,65.183c2.76,43.479,27.541,55.417,36.116,58.247,8.574-2.83,33.355-14.768,36.116-58.249-9.772-3.927-26.087-10.351-36.116-13.588C76.481,54.841,60.183,61.26,50.426,65.183Zm53.4.357,6.061,4.046a2.025,2.025,0,0,1,.484,2.912L84.106,106.885a2.023,2.023,0,0,1-1.471.789c-.046,0-.09,0-.135,0a2.023,2.023,0,0,1-1.428-.593L66.93,92.927a2.026,2.026,0,0,1,0-2.861L72.991,84a2.019,2.019,0,0,1,2.857,0L82.3,90.461l18.8-24.472A2.016,2.016,0,0,1,103.825,65.54Zm0,0" transform="translate(-40.08 -41.009)" fill="#bc9be6"/><path d="M46.461,0C33.837,3.708,6.218,14.913,0,17.455.591,80.421,42.134,91.9,46.472,92.922c4.769-1.053,45.872-11.991,46.45-75.467C86.7,14.913,59.085,3.708,46.461,0Zm.6,86.479a2.027,2.027,0,0,1-1.192,0C37.2,83.8,8.716,71.292,6.228,22.944a2.023,2.023,0,0,1,1.262-1.98C17.27,17.02,35.259,9.9,45.849,6.534a2.013,2.013,0,0,1,1.222,0c10.555,3.353,28.565,10.479,38.36,14.429a2.022,2.022,0,0,1,1.262,1.98C84.206,71.292,55.727,83.8,47.057,86.479Zm0,0" fill="#bc9be6"/></g></g></svg>