<svg xmlns="http://www.w3.org/2000/svg" width="125.638" height="60.072" viewBox="0 0 125.638 60.072"><rect width="55.839" height="12.262" rx="6.131" transform="translate(0)" fill="#fff"/><rect width="55.839" height="12.262" rx="6.131" transform="translate(34.145 1.981) rotate(90)" fill="#fff"/><rect width="49.902" height="10.958" rx="5.479" transform="translate(125.638 20.749) rotate(128)" fill="#fff"/><rect width="16.718" height="10.958" rx="5.479" transform="translate(117.003 60.072) rotate(-128)" fill="#9c62e7"/><rect width="28.491" height="10.958" rx="5.479" transform="translate(103.822 43.2) rotate(-128)" fill="#fff"/><path d="M67.422,148.489v-.736a22.352,22.352,0,0,0-5.282-13.205A17.484,17.484,0,0,0,48.67,128.7c-6.112,0-11.224,2.245-14.733,6.508-3.3,4-5.037,9.564-5.037,16.092,0,6.508,1.83,12.036,5.263,15.959,3.6,4.112,8.753,6.282,14.922,6.282a19.255,19.255,0,0,0,11.47-3.282,17.971,17.971,0,0,0,5.735-7.018,4.422,4.422,0,0,0,.641-2.4,4.989,4.989,0,0,0-3.83-4.678h-.019a7.207,7.207,0,0,0-2.094-.358,5.056,5.056,0,0,0-4.584,3.018l-.038.075c-1.49,3.282-3.716,4.735-7.225,4.735-6.659,0-8.7-4.924-9.244-9.055H61.611C65.158,154.639,67.422,152.224,67.422,148.489ZM48.689,138.453c4.792,0,6.716,3.773,7.452,6.433H40.483C41.728,140.6,44.482,138.453,48.689,138.453Z" transform="translate(16.564 -115.683)" fill="#fff"/></svg>